#!OML:ASF H:\Terrain\Patient Classification 1\Takeo\Monday\TakeoMonday.ASF
:FULLY-SPECIFIED
:DEGREES
1
root 10.4194 16.7048 -30.1003 -2.48972 -9.82194 -3.00914
lowerback 7.86573 1.57272 6.3571
upperback 3.47255 2.55226 1.65684
thorax -0.599593 1.31944 -2.05527
lowerneck -12.4901 4.06706 1.03438
upperneck 1.61784 5.61246 -6.40733
head 2.97226 2.54741 -1.92752
rclavicle -1.6201e-014 -1.43125e-014
rhumerus -9.40273 14.8795 -82.1974
rradius 46.2257
rwrist -16.7798
rhand -25.9429 18.5743
rfingers 7.12502
rthumb 0.600913 -11.4046
lclavicle -1.6201e-014 -1.43125e-014
lhumerus -51.9812 32.3861 64.939
lradius 20.3824
lwrist 12.631
lhand -21.8909 22.8474
lfingers 7.12502
lthumb 4.5141 52.7793
rfemur 16.1777 1.96704 29.9133
rtibia 11.5302
rfoot -15.9687 0.925564
rtoes 4.33359
lfemur -28.0191 -1.02078 -20.1783
ltibia 22.3977
lfoot -12.1104 13.478
ltoes -10.2227
2
root 10.4117 16.684 -29.9168 -2.69729 -10.0082 -2.83243
lowerback 7.44596 1.65374 6.09331
upperback 3.91254 2.58553 1.67171
thorax 0.0784557 1.35992 -1.86912
lowerneck -13.0403 4.1508 1.03655
upperneck 1.41954 5.71695 -6.43796
head 3.01316 2.59206 -1.92353
rclavicle -3.06128e-014 -7.95139e-016
rhumerus -8.66985 14.6305 -81.9822
rradius 46.032
rwrist -16.5037
rhand -25.3579 18.1254
rfingers 7.12502
rthumb 1.16593 -11.8512
lclavicle -3.06128e-014 -7.95139e-016
lhumerus -51.4595 32.9736 65.2094
lradius 20.3072
lwrist 12.3811
lhand -21.901 23.0332
lfingers 7.12502
lthumb 4.50436 52.9653
rfemur 17.2048 2.06921 29.6756
rtibia 11.2385
rfoot -15.6726 0.950482
rtoes 2.11338
lfemur -27.7269 -0.953135 -20.5822
ltibia 22.4395
lfoot -12.3785 13.6867
ltoes -8.45391
3
root 10.4037 16.6749 -29.7319 -2.73684 -10.1104 -2.67905
lowerback 7.31519 1.74924 5.93159
upperback 3.96845 2.68906 1.61541
thorax 0.211031 1.41449 -1.83734
lowerneck -13.1188 4.14188 1.06949
upperneck 1.08186 5.66983 -6.25219
head 2.90215 2.582 -1.8696
rclavicle 3.97569e-015 -1.03368e-014
rhumerus -8.50177 14.3985 -81.9469
rradius 45.6568
rwrist -16.2262
rhand -25.4816 18.2851
rfingers 7.12502
rthumb 1.04638 -11.6921
lclavicle 3.97569e-015 -1.03368e-014
lhumerus -51.3593 33.2859 65.0346
lradius 20.0295
lwrist 11.6134
lhand -21.8378 22.427
lfingers 7.12502
lthumb 4.56542 52.3578
rfemur 17.7116 2.03566 29.3786
rtibia 11.6107
rfoot -15.695 1.22609
rtoes 0.922151
lfemur -27.6281 -0.810148 -21.0041
ltibia 22.6869
lfoot -12.2625 13.6748
ltoes -9.11447
4
root 10.3951 16.6696 -29.54 -2.6529 -10.1914 -2.43014
lowerback 7.19363 1.82368 5.74365
upperback 3.81888 2.77415 1.4497
thorax 0.127573 1.4515 -1.90802
lowerneck -12.9178 4.12991 1.31882
upperneck 0.706102 5.58519 -6.09066
head 2.73437 2.55894 -1.86943
rclavicle 1.37658e-014 0
rhumerus -8.68107 14.2787 -82.1702
rradius 45.2994
rwrist -16.0827
rhand -25.8239 18.565
rfingers 7.12502
rthumb 0.715839 -11.4136
lclavicle 1.37658e-014 0
lhumerus -51.4118 33.3294 64.7565
lradius 19.8149
lwrist 11.1137
lhand -21.9155 21.714
lfingers 7.12502
lthumb 4.49033 51.6464
rfemur 18.2149 2.09324 28.9948
rtibia 11.7512
rfoot -15.3617 1.42214
rtoes 0.396563
lfemur -27.6637 -0.391122 -21.6105
ltibia 23.2309
lfoot -11.8145 13.2795
ltoes -11.1406
5
root 10.3841 16.6488 -29.3447 -2.50765 -10.3526 -2.46894
lowerback 6.93084 1.85711 5.71898
upperback 3.70601 2.80336 1.40701
thorax 0.158931 1.46518 -1.93228
lowerneck -12.7095 4.17378 1.546
upperneck 0.38896 5.58739 -5.9898
head 2.59153 2.57436 -1.87971
rclavicle -2.04251e-014 -7.15625e-015
rhumerus -8.88558 14.3777 -82.4627
rradius 45.0282
rwrist -16.0025
rhand -26.022 18.4229
rfingers 7.12502
rthumb 0.524504 -11.5562
lclavicle -2.04251e-014 -7.15625e-015
lhumerus -51.3723 33.2687 64.7988
lradius 19.8026
lwrist 11.3747
lhand -21.8573 21.6385
lfingers 7.12502
lthumb 4.54656 51.5698
rfemur 18.5238 2.05559 28.8937
rtibia 12.2574
rfoot -15.0286 1.70983
rtoes -0.597689
lfemur -27.6786 -0.161279 -21.8039
ltibia 24.1117
lfoot -11.5185 12.8466
ltoes -11.8881
6
root 10.3736 16.6153 -29.1487 -2.27833 -10.4567 -2.74192
lowerback 6.39393 1.89875 5.83274
upperback 3.70818 2.82625 1.52352
thorax 0.460678 1.48492 -1.85437
lowerneck -12.6363 4.16435 1.46386
upperneck 0.109727 5.56187 -5.76511
head 2.46892 2.57522 -1.79365
rclavicle -9.39258e-015 -3.33958e-014
rhumerus -8.94255 14.3995 -82.5464
rradius 44.7054
rwrist -16.0208
rhand -26.1876 18.2668
rfingers 7.12502
rthumb 0.36451 -11.7126
lclavicle -9.39258e-015 -3.33958e-014
lhumerus -51.2401 33.4019 64.9731
lradius 19.7523
lwrist 11.4084
lhand -21.7171 21.9356
lfingers 7.12502
lthumb 4.68197 51.8639
rfemur 18.7716 1.97435 29.0445
rtibia 12.8488
rfoot -15.001 1.96046
rtoes -2.66505
lfemur -27.737 -0.266955 -21.6658
ltibia 25.1808
lfoot -11.2938 12.5502
ltoes -10.5823
7
root 10.3599 16.5715 -28.9534 -2.2599 -10.3619 -2.59234
lowerback 6.0578 1.87772 5.45535
upperback 3.7224 2.75505 1.55572
thorax 0.634688 1.44776 -1.59433
lowerneck -12.5777 4.15989 1.23641
upperneck -0.237379 5.55495 -5.38302
head 2.31528 2.59066 -1.62948
rclavicle 1.9133e-014 -2.38542e-015
rhumerus -8.99603 14.4498 -82.5553
rradius 44.2949
rwrist -16.2697
rhand -26.0908 18.2072
rfingers 7.12502
rthumb 0.458083 -11.7721
lclavicle 1.9133e-014 -2.38542e-015
lhumerus -51.2191 33.6162 65.0468
lradius 19.7851
lwrist 11.1488
lhand -21.4715 21.9958
lfingers 7.12502
lthumb 4.91905 51.9187
rfemur 19.3145 2.03164 28.8841
rtibia 13.2441
rfoot -15.2026 1.8636
rtoes -5.73873
lfemur -27.7804 -0.346391 -22.0273
ltibia 26.364
lfoot -10.3924 12.4866
ltoes -10.2688
